# xmcd
#
# Track frame offsets:
#	150
#	14508
#	30634
#	43647
#	59612
#	73363
#	92457
#	109276
#	119419
#	141210
#	155331
#	170666
#
# Disc length: 2518 seconds
#
# Revision: 0
# Processed by: cddbd v1.5.2PL0 Copyright (c) Steve Scherf et al.
# Submitted via: EasyCDDAExtractor 16.0.3.1
#
DISCID=ac09d40c
DTITLE=Tattletale Saints - How Red Is The Blood
DYEAR=2013
DGENRE=Americana
TTITLE0=Kathleen
TTITLE1=Traces Of You
TTITLE2=Emily
TTITLE3=Doctor Doctor
TTITLE4=How Red Is The Blood From A Broken Heart
TTITLE5=Fell Upon The Fields
TTITLE6=Complicated Man
TTITLE7=Jessica On Prairie Legs
TTITLE8=Molly
TTITLE9=Hank
TTITLE10=We,Ve Got Lakes
TTITLE11=At Last
EXTD=
EXTT0=
EXTT1=
EXTT2=
EXTT3=
EXTT4=
EXTT5=
EXTT6=
EXTT7=
EXTT8=
EXTT9=
EXTT10=
EXTT11=
PLAYORDER=
